<?xml version="1.0" encoding="UTF-8" standalone="no"?>
<!-- Created with Inkscape (http://www.inkscape.org/) -->

<svg
   xmlns:dc="http://purl.org/dc/elements/1.1/"
   xmlns:cc="http://creativecommons.org/ns#"
   xmlns:rdf="http://www.w3.org/1999/02/22-rdf-syntax-ns#"
   xmlns:svg="http://www.w3.org/2000/svg"
   xmlns="http://www.w3.org/2000/svg"
   xmlns:sodipodi="http://sodipodi.sourceforge.net/DTD/sodipodi-0.dtd"
   xmlns:inkscape="http://www.inkscape.org/namespaces/inkscape"
   id="svg4576"
   version="1.1"
   inkscape:version="0.48.5 r10040"
   width="804"
   height="640"
   sodipodi:docname="e logo mono.svg">
  <metadata
     id="metadata4582">
    <rdf:RDF>
      <cc:Work
         rdf:about="">
        <dc:format>image/svg+xml</dc:format>
        <dc:type
           rdf:resource="http://purl.org/dc/dcmitype/StillImage" />
        <dc:title />
      </cc:Work>
    </rdf:RDF>
  </metadata>
  <defs
     id="defs4580" />
  <sodipodi:namedview
     pagecolor="#ff3eff"
     bordercolor="#666666"
     borderopacity="1"
     objecttolerance="10"
     gridtolerance="10"
     guidetolerance="10"
     inkscape:pageopacity="0.58823529"
     inkscape:pageshadow="2"
     inkscape:window-width="1920"
     inkscape:window-height="1027"
     id="namedview4578"
     showgrid="false"
     inkscape:zoom="1.475"
     inkscape:cx="199.53774"
     inkscape:cy="291.99596"
     inkscape:window-x="1912"
     inkscape:window-y="816"
     inkscape:window-maximized="1"
     inkscape:current-layer="svg4576" />
  <g
     id="g12013">
    <path
       transform="matrix(0.99268465,0,0,0.99268465,7.6442922,-0.04821586)"
       d="m 652.20341,155.59322 a 47.457626,47.457626 0 1 1 -94.91525,0 47.457626,47.457626 0 1 1 94.91525,0 z"
       sodipodi:ry="47.457626"
       sodipodi:rx="47.457626"
       sodipodi:cy="155.59322"
       sodipodi:cx="604.74579"
       id="path8024"
       style="fill:none;stroke:#000000;stroke-width:9.15295695999999910;stroke-miterlimit:4;stroke-opacity:1;stroke-dasharray:none"
       sodipodi:type="arc" />
    <text
       sodipodi:linespacing="160%"
       id="text8018"
       y="174.91525"
       x="587.45471"
       style="font-size:57.28489684999999600px;font-style:normal;font-variant:normal;font-weight:bold;font-stretch:normal;line-height:160.00000238000001000%;letter-spacing:0px;word-spacing:0px;fill:#00000f;fill-opacity:0.94117647;stroke:none;font-family:Arial;-inkscape-font-specification:Arial Bold"
       xml:space="preserve"><tspan
         style="font-style:normal;font-variant:normal;font-weight:bold;font-stretch:normal;line-height:160.00000238000001000%;fill:#00000f;fill-opacity:0.94117647;font-family:Arial;-inkscape-font-specification:Arial Bold"
         y="174.91525"
         x="587.45471"
         id="tspan8020"
         sodipodi:role="line">R</tspan></text>
  </g>
  <path
     style="fill:#000000;fill-opacity:1"
     d="M 309.71875 113.21875 C 297.40929 113.14485 285.00709 114.05126 272.625 115.96875 C 176.11694 130.91399 101.48359 207.15381 84.90625 305.90625 C 81.51428 326.11247 81.597146 352.46852 84.84375 372.875 C 92.569352 421.44068 114.34144 464.48659 148.78125 499.09375 C 186.92004 537.41785 235.92541 559.93115 291.40625 565.125 C 302.8138 566.19292 315.94264 565.7363 331.0625 564.34375 C 393.05438 558.63426 448.65304 527.30114 487.90625 476.75 C 502.82478 457.5376 514.6223 435.1949 522.46875 413.78125 C 530.3152 392.3676 537.43346 374.03748 528.90625 350.03125 C 525.05762 339.19639 518.56844 329.54991 509.375 322.09375 C 503.28584 317.15525 496.28808 313.41601 488.90625 310.8125 C 489.25438 310.62371 492.11605 309.14218 492.375 309 C 498.88597 305.42516 506.63103 300.82054 512.46875 291.375 C 518.30647 281.92946 518.92037 271.50062 518.59375 264.25 C 518.42035 260.40067 517.86326 254.28657 515.875 248.65625 C 513.88674 243.02593 511.71205 239.38432 508.90625 234.375 C 494.9281 209.41917 476.45841 186.78148 454.5 167.5625 C 414.3595 132.42974 362.99652 113.53859 309.71875 113.21875 z M 309.5625 141.09375 C 356.38375 141.37483 401.09671 157.90417 436.125 188.5625 C 455.74697 205.73652 472.19525 225.92018 484.5625 248 C 489.94993 257.61842 490.46114 259.08772 490.75 265.5 C 491.19601 275.40098 488.90562 279.10667 478.96875 284.5625 C 469.11114 289.97481 290.64165 383.76926 276.5625 390.9375 C 265.68663 396.4749 265.60202 396.5 256.5625 396.5 C 245.90515 396.5 240.83336 394.44896 233.53125 387.25 C 217.88385 371.82363 220.08067 347.66808 238.25 335.71875 C 241.12937 333.82509 275.9 315.30865 315.5 294.5625 C 355.1 273.81635 388.365 255.98355 389.4375 254.9375 C 392.44861 252.00064 392.00594 246.67849 388.4375 242.90625 C 380.156 234.15179 359.58404 223.42009 342 218.6875 C 326.06229 214.39801 302.2894 213.19675 287 215.90625 C 264.02908 219.97703 241.80316 230.93092 225.34375 246.28125 C 195.84469 273.79259 180.80452 312.66514 184.65625 351.5 C 188.7804 393.08155 215.91061 433.44895 251.78125 451.40625 C 260.03429 455.53783 274.28632 460.54331 282.1875 462.0625 C 306.58121 466.75276 334.19163 464.40272 355 455.875 C 392.29762 440.58963 417.65404 412.17154 429.40625 372.46875 C 435.26893 352.66263 441.3057 343.43946 452 338.03125 C 464.70109 331.60818 479.47726 333.74573 491.8125 343.75 C 496.61386 347.64405 500.41232 353.14575 502.625 359.375 C 509.24991 378.02579 491.37776 426.81324 465.875 459.65625 C 430.90685 504.689 382.92178 531.55022 328.5 536.5625 C 314.5074 537.85123 302.27611 538.11852 294 537.34375 C 244.20189 532.68189 202.2984 513.33732 168.5625 479.4375 C 137.99747 448.72395 119.25331 411.73932 112.375 368.5 C 110.04128 353.83144 110.06827 324.45877 112.40625 310.53125 C 127.14062 222.75752 192.27816 156.63676 276.90625 143.53125 C 287.84205 141.83773 298.7576 141.02885 309.5625 141.09375 z M 305.15625 242.625 C 315.43966 242.69652 327.87315 243.77416 334.75 245.625 C 337.14049 246.26838 339.95409 247.45857 342.71875 248.625 C 330.76705 254.99079 318.04279 261.76499 302.5625 269.875 C 282.71349 280.27375 264.0834 290.09161 250 297.59375 C 241.04181 302.64385 229.0738 308.38965 222.9375 312.40625 C 219.72832 314.51681 216.8607 316.96029 214.21875 319.5625 C 218.42218 299.89543 228.65316 281.34997 244.375 266.6875 C 256.51612 255.36448 274.32451 246.4852 291.875 243.375 C 294.12606 242.97608 297.28229 242.74037 300.90625 242.65625 C 302.26524 242.6247 303.68719 242.61478 305.15625 242.625 z M 406.21875 354.28125 C 404.92426 357.62751 403.69745 361.04496 402.65625 364.5625 C 392.97472 397.26987 374.61624 417.6946 344.4375 430.0625 C 329.97526 435.98944 306.30339 438.31491 287.4375 434.6875 C 284.5839 434.13883 269.07337 428.88339 264.25 426.46875 C 262.91227 425.79907 261.63124 424.8686 260.3125 424.09375 C 268.9683 423.42714 279.70048 420.62744 289.21875 415.78125 C 298.90346 410.85039 353.42167 382.04643 406.21875 354.28125 z "
     id="path10894" />
  <path
     sodipodi:type="arc"
     style="opacity:1;fill:none;fill-opacity:1;stroke:#000000;stroke-width:16.08458518999999900;stroke-linecap:square;stroke-linejoin:bevel;stroke-miterlimit:4;stroke-opacity:1;stroke-dasharray:none"
     id="path10920"
     sodipodi:cx="610.42371"
     sodipodi:cy="448.89832"
     sodipodi:rx="45"
     sodipodi:ry="45"
     d="m 655.42371,448.89832 a 45,45 0 1 1 -90,0 45,45 0 1 1 90,0 z"
     transform="matrix(1.2127257,0,0,1.2127257,-129.51377,-98.204027)" />
</svg>
