<?xml version="1.0" encoding="UTF-8" standalone="no"?>
<!-- Created with Inkscape (http://www.inkscape.org/) -->

<svg
   xmlns:dc="http://purl.org/dc/elements/1.1/"
   xmlns:cc="http://creativecommons.org/ns#"
   xmlns:rdf="http://www.w3.org/1999/02/22-rdf-syntax-ns#"
   xmlns:svg="http://www.w3.org/2000/svg"
   xmlns="http://www.w3.org/2000/svg"
   xmlns:sodipodi="http://sodipodi.sourceforge.net/DTD/sodipodi-0.dtd"
   xmlns:inkscape="http://www.inkscape.org/namespaces/inkscape"
   id="svg4576"
   version="1.1"
   inkscape:version="0.48.5 r10040"
   width="804"
   height="640"
   sodipodi:docname="e logo no shadow.svg">
  <metadata
     id="metadata4582">
    <rdf:RDF>
      <cc:Work
         rdf:about="">
        <dc:format>image/svg+xml</dc:format>
        <dc:type
           rdf:resource="http://purl.org/dc/dcmitype/StillImage" />
        <dc:title />
      </cc:Work>
    </rdf:RDF>
  </metadata>
  <defs
     id="defs4580" />
  <sodipodi:namedview
     pagecolor="#ff3eff"
     bordercolor="#666666"
     borderopacity="1"
     objecttolerance="10"
     gridtolerance="10"
     guidetolerance="10"
     inkscape:pageopacity="0.58823529"
     inkscape:pageshadow="2"
     inkscape:window-width="1920"
     inkscape:window-height="1027"
     id="namedview4578"
     showgrid="false"
     inkscape:zoom="5.9"
     inkscape:cx="594.6012"
     inkscape:cy="199.95626"
     inkscape:window-x="1912"
     inkscape:window-y="816"
     inkscape:window-maximized="1"
     inkscape:current-layer="svg4576" />
  <g
     id="g4586">
    <path
       style="fill:#ffffff"
       d="m 309.5625,141.09375 c -10.8049,-0.0649 -21.72045,0.74398 -32.65625,2.4375 -84.62809,13.10551 -149.76563,79.22627 -164.5,167 -2.33798,13.92752 -2.36492,43.30019 -0.0312,57.96875 6.87831,43.23932 25.62247,80.22395 56.1875,110.9375 33.7359,33.89982 75.63939,53.24439 125.4375,57.90625 8.27611,0.77477 20.5074,0.50748 34.5,-0.78125 54.42178,-5.01228 102.40685,-31.8735 137.375,-76.90625 25.50276,-32.84301 43.37491,-81.63046 36.75,-100.28125 -2.21268,-6.22925 -6.01114,-11.73095 -10.8125,-15.625 -12.33524,-10.00427 -27.11141,-12.14182 -39.8125,-5.71875 -10.6943,5.40821 -16.73107,14.63138 -22.59375,34.4375 C 417.65409,412.17154 392.29762,440.58963 355,455.875 c -20.80837,8.52772 -48.41879,10.87776 -72.8125,6.1875 -7.90118,-1.51919 -22.15321,-6.52467 -30.40625,-10.65625 -35.87064,-17.9573 -63.00085,-58.3247 -67.125,-99.90625 -3.85173,-38.83486 11.18844,-77.70741 40.6875,-105.21875 16.45941,-15.35033 38.68533,-26.30422 61.65625,-30.375 15.2894,-2.7095 39.06229,-1.50824 55,2.78125 17.58404,4.73259 38.156,15.46429 46.4375,24.21875 3.56844,3.77224 4.01111,9.09439 1,12.03125 -1.0725,1.04605 -34.3375,18.87885 -73.9375,39.625 -39.6,20.74615 -74.37063,39.26259 -77.25,41.15625 -18.16933,11.94933 -20.36615,36.10488 -4.71875,51.53125 7.30211,7.19896 12.3739,9.25 23.03125,9.25 9.03952,0 9.12413,-0.0251 20,-5.5625 14.07915,-7.16824 192.54864,-100.96269 202.40625,-106.375 9.93687,-5.45583 12.22726,-9.16152 11.78125,-19.0625 -0.28886,-6.41228 -0.80007,-7.88158 -6.1875,-17.5 -12.36725,-22.07982 -28.81553,-42.26348 -48.4375,-59.4375 -35.02829,-30.65833 -79.74125,-47.18767 -126.5625,-47.46875 z"
       id="white-fill" />
    <path
       id="copyright"
       style="fill:#cfcfcf"
       d="m 592,133.84375 0,20.59375 0,20.5625 3.46875,0 3.4375,0 0.3125,-8.25 c 0.2871,-8.15518 0.30681,-8.25215 3,-8.5625 3.94378,-0.45447 5.27132,0.59685 11.125,8.875 5.15166,7.28538 5.3647,7.45145 9.96875,7.75 2.58514,0.16764 4.6875,0.0495 4.6875,-0.25 0,-1.43054 -9.12249,-14.51617 -11.0625,-15.875 l -2.1875,-1.5625 3.5625,-1.46875 c 7.04444,-2.94336 8.80492,-13.00147 3.25,-18.5625 -2.49747,-2.50022 -3.11806,-2.59102 -16.09375,-2.90625 L 592,133.84375 z m 18.71875,7.25 c 3.07723,0.0345 3.67035,0.58418 4.84375,2.375 1.54532,2.3585 1.5506,2.71243 0.0312,5.03125 -1.48935,2.27303 -2.28418,2.5 -8.65625,2.5 -7.72172,0 -8.29488,-0.46836 -7.75,-6.15625 L 599.5,141.5 l 7.1875,-0.28125 c 1.69002,-0.0687 3.00551,-0.13651 4.03125,-0.125 z m -2.5625,-38.5 c -2.87586,7e-4 -5.78487,0.26906 -8.71875,0.78125 -23.85514,4.16455 -41.35421,23.48889 -43.125,47.625 -0.71085,9.68906 0.85671,17.12968 5.71875,26.84375 7.7049,15.39391 22.60735,25.8887 40.46875,28.5 4.45201,0.65087 13.26713,-0.26094 19.5,-2 21.81612,-6.08704 38,-27.30736 38,-49.84375 0,-28.89565 -24.04378,-51.91301 -51.84375,-51.90625 z M 606.6875,112.25 c 10.34897,-0.37509 21.04456,3.06423 30.03125,11.1875 6.4201,5.80328 11.9382,16.36409 13.0625,25.0625 2.86072,22.13273 -10.33728,41.23549 -32.46875,47 -9.48688,2.47102 -18.83838,1.30471 -28.5625,-3.59375 -13.85187,-6.97779 -22.8598,-21.76512 -22.875,-37.5625 -0.0237,-24.65156 19.62175,-41.3257 40.8125,-42.09375 z" />
    <path
       style="fill:#4ce0fe"
       d="M 611 401.5 C 602.22442 401.5 595.45218 403.24822 588.5 407.28125 C 567.47259 419.47947 560.09542 445.53173 571.375 467.78125 C 574.29011 473.53145 583.04652 482.47156 588.5 485.28125 C 599.45226 490.92398 612.6231 492.47236 623.0625 489.375 C 631.4478 486.88708 637.02551 483.69505 642.5625 478.15625 C 663.56932 457.14258 659.09775 422.13077 633.5 407.28125 C 626.54782 403.24822 619.77558 401.5 611 401.5 z "
       id="blue-dot" />
    <path
       style="fill:#4c4c4c"
       d="M 295,564.83777 C 222.21727,561.26747 154.59338,520.46562 115.42331,456.48759 72.955908,387.12392 71.964805,298.53633 112.85584,227 131.41733,194.52782 157.77211,166.93779 189.05486,147.2295 239.1941,115.64154 301.48308,105.83552 361.5,120.08182 c 42.40587,10.06595 81.35095,32.98069 111.85284,65.81267 11.4093,12.28087 26.23047,32.09587 31.30037,41.84667 1.93283,3.71736 4.14061,7.45717 4.90618,8.31069 1.71148,1.9081 9.92232,19.35166 12.02698,25.5508 1.61467,4.75589 1.18352,13.93934 -0.83636,17.8145 -3.62287,6.95052 -24.26001,28.19126 -32.38324,33.3304 -2.3885,1.51108 -4.53019,3.23594 -4.75932,3.83302 -0.24796,0.64619 2.8841,1.82003 7.73798,2.90004 12.96559,2.13834 18.23557,7.6945 29.33053,17.62524 10.09731,8.8246 11.28145,16.38174 11.21365,29.36692 -0.0684,13.10734 -5.53122,44.08754 -9.46516,53.6782 -3.91279,12.72922 -12.36372,22.98654 -18.90224,33.47296 -32.4282,52.66288 -76.09375,86.92224 -131.52221,103.1904 -22.27265,6.53698 -49.48918,9.37296 -77,8.02344 z m 33.5,-28.28175 c 54.42178,-5.01228 102.4062,-31.87641 137.37435,-76.90916 25.50276,-32.84301 43.38895,-81.63182 36.76404,-100.28261 -2.21268,-6.22925 -6.02546,-11.73222 -10.82682,-15.62627 C 479.47633,333.73371 464.70109,331.62025 452,338.04332 c -10.6943,5.40821 -16.74056,14.61595 -22.60324,34.42207 -11.75216,39.70279 -37.09914,68.11848 -74.39676,83.40385 -20.80837,8.52772 -48.41444,10.87135 -72.80815,6.18109 -7.90118,-1.51919 -22.15031,-6.50355 -30.40335,-10.63513 -35.87064,-17.9573 -62.99315,-58.33365 -67.1173,-99.9152 -3.85173,-38.83486 11.17922,-77.7179 40.67828,-105.22924 16.45941,-15.35033 38.6796,-26.29472 61.65052,-30.3655 15.2894,-2.7095 39.06229,-1.50666 55,2.78283 17.58404,4.73259 38.1685,15.46592 46.45,24.22038 3.56844,3.77224 4.01111,9.10103 1,12.03789 -1.0725,1.04605 -34.35,18.87603 -73.95,39.62218 -39.6,20.74615 -74.35584,39.26963 -77.23521,41.16329 -18.16933,11.94933 -20.39402,36.09841 -4.74662,51.52478 7.30211,7.19896 12.4024,9.24339 23.05975,9.24339 9.03952,0 9.12413,-0.0235 20,-5.56085 14.07915,-7.16824 192.54568,-100.96572 202.40329,-106.37803 9.93687,-5.45583 12.22622,-9.16014 11.78021,-19.06112 -0.28886,-6.41228 -0.80912,-7.88158 -6.19655,-17.5 -12.36725,-22.07982 -28.80789,-42.25408 -48.42986,-59.4281 -43.11174,-37.73333 -100.89999,-54.08445 -159.22428,-45.05235 -84.62809,13.10551 -149.77773,79.24967 -164.5121,167.0234 -2.33798,13.92752 -2.34267,43.28849 -0.009,57.95705 6.87831,43.23932 25.60902,80.23361 56.17405,110.94716 33.7359,33.89982 75.63848,53.24325 125.43659,57.90511 8.27611,0.77477 20.5074,0.49248 34.5,-0.79625 z M 331,434.46668 c 9.8953,-2.26899 22.97896,-7.9695 31.89358,-13.89593 14.09942,-9.37328 28.6563,-26.33677 34.38591,-40.07075 2.88851,-6.92378 8.74138,-25.5 8.03438,-25.5 -0.50316,0 -21.11385,10.78044 -81.81387,42.79282 -40.17284,21.18661 -47.56289,24.61555 -55.36381,25.68845 -2.82368,0.38835 -5.34019,1.03979 -5.59224,1.44763 -0.99882,1.61611 16.33427,8.28509 25.95605,9.98669 3.3,0.58361 7.125,1.26054 8.5,1.5043 5.2516,0.93101 26.82702,-0.30845 34,-1.95321 z M 226.5,310.31345 c 4.17237,-2.5867 97.28707,-51.69235 112.84773,-59.5122 l 4.84773,-2.43618 -7.70987,-2.2402 c -51.9622,-15.09825 -104.83348,13.6529 -120.81278,65.6974 l -2.55519,8.32228 4.19119,-3.36565 c 2.30515,-1.85111 6.44119,-4.76056 9.19119,-6.46545 z m 376,200.01943 c -12.93446,-1.44498 -26.26572,-8.12641 -36.57858,-18.33265 -8.35953,-8.2731 -12.70148,-15.14749 -16.54236,-26.19068 -3.46804,-9.97122 -3.71469,-26.82778 -0.54593,-37.30955 6.60387,-21.84457 22.44502,-37.64271 44.52221,-44.40133 C 598.51086,382.52037 602.88594,382 611,382 c 18.22129,0 33.04132,6.04422 45.47705,18.54741 12.95772,13.02801 18.81881,27.38413 18.76081,45.95259 -0.0581,18.60809 -5.7909,32.21325 -19.17579,45.50849 -8.13669,8.08218 -15.82883,12.76066 -26.19559,15.93257 -6.51524,1.99347 -20.21465,3.19079 -27.36648,2.39182 z m 20.5685,-20.9444 c 8.3853,-2.48792 13.96639,-5.70562 19.50338,-11.24442 21.00682,-21.01367 16.52587,-56.01773 -9.07188,-70.86725 -6.95218,-4.03303 -13.72442,-5.76962 -22.5,-5.76962 -8.77558,0 -15.54782,1.73659 -22.5,5.76962 -21.02741,12.19822 -28.39671,38.24047 -17.11713,60.48999 2.91511,5.7502 11.66365,14.69873 17.11713,17.50842 10.95226,5.64273 24.1291,7.21062 34.5685,4.11326 z"
       id="gray-stroke"
       inkscape:connector-curvature="0"
       sodipodi:nodetypes="ssssssssssscccsccsscssssssssssssssssssssssssscssccsssssscssssscsscsssssssssssssssssssss" />
  </g>
</svg>
