<?xml version="1.0" encoding="UTF-8" standalone="no"?>
<!-- Created with Inkscape (http://www.inkscape.org/) -->

<svg
   xmlns:dc="http://purl.org/dc/elements/1.1/"
   xmlns:cc="http://creativecommons.org/ns#"
   xmlns:rdf="http://www.w3.org/1999/02/22-rdf-syntax-ns#"
   xmlns:svg="http://www.w3.org/2000/svg"
   xmlns="http://www.w3.org/2000/svg"
   xmlns:sodipodi="http://sodipodi.sourceforge.net/DTD/sodipodi-0.dtd"
   xmlns:inkscape="http://www.inkscape.org/namespaces/inkscape"
   id="svg4576"
   version="1.1"
   inkscape:version="0.48.5 r10040"
   width="804"
   height="640"
   sodipodi:docname="e logo no shadow.svg">
  <metadata
     id="metadata4582">
    <rdf:RDF>
      <cc:Work
         rdf:about="">
        <dc:format>image/svg+xml</dc:format>
        <dc:type
           rdf:resource="http://purl.org/dc/dcmitype/StillImage" />
        <dc:title />
      </cc:Work>
    </rdf:RDF>
  </metadata>
  <defs
     id="defs4580" />
  <sodipodi:namedview
     pagecolor="#ff3eff"
     bordercolor="#666666"
     borderopacity="1"
     objecttolerance="10"
     gridtolerance="10"
     guidetolerance="10"
     inkscape:pageopacity="0.58823529"
     inkscape:pageshadow="2"
     inkscape:window-width="1920"
     inkscape:window-height="1027"
     id="namedview4578"
     showgrid="false"
     inkscape:zoom="1.475"
     inkscape:cx="326.99537"
     inkscape:cy="291.99596"
     inkscape:window-x="1912"
     inkscape:window-y="816"
     inkscape:window-maximized="1"
     inkscape:current-layer="svg4576" />
  <g
     id="g8805">
    <path
       transform="matrix(0.99268465,0,0,0.99268465,7.6442922,-0.04821586)"
       d="m 652.20341,155.59322 a 47.457626,47.457626 0 1 1 -94.91525,0 47.457626,47.457626 0 1 1 94.91525,0 z"
       sodipodi:ry="47.457626"
       sodipodi:rx="47.457626"
       sodipodi:cy="155.59322"
       sodipodi:cx="604.74579"
       id="path8024"
       style="fill:none;stroke:#cecece;stroke-width:9.15295708000000020;stroke-miterlimit:4;stroke-opacity:1;stroke-dasharray:none"
       sodipodi:type="arc" />
    <text
       sodipodi:linespacing="160%"
       id="text8018"
       y="174.91525"
       x="587.45471"
       style="font-size:57.28489684999999600px;font-style:normal;font-variant:normal;font-weight:bold;font-stretch:normal;line-height:160.00000238000001000%;letter-spacing:0px;word-spacing:0px;fill:#cecece;fill-opacity:1;stroke:none;font-family:Arial;-inkscape-font-specification:Arial Bold"
       xml:space="preserve"><tspan
         style="font-style:normal;font-variant:normal;font-weight:bold;font-stretch:normal;line-height:160.00000238000001000%;font-family:Arial;-inkscape-font-specification:Arial Bold;fill:#cecece;fill-opacity:1"
         y="174.91525"
         x="587.45471"
         id="tspan8020"
         sodipodi:role="line">R</tspan></text>
  </g>
  <path
     style="fill:#4c4c4c;fill-opacity:1"
     d="m 309.71875,113.21875 c -12.30946,-0.0739 -24.71166,0.83251 -37.09375,2.75 -96.50806,14.94524 -171.14141,91.18506 -187.71875,189.9375 -3.39197,20.20622 -3.309104,46.56227 -0.0625,66.96875 7.725602,48.56568 29.49769,91.61159 63.9375,126.21875 38.13879,38.3241 87.14416,60.8374 142.625,66.03125 11.40755,1.06792 24.53639,0.6113 39.65625,-0.78125 61.99188,-5.70949 117.59054,-37.04261 156.84375,-87.59375 14.91853,-19.2124 26.71605,-41.5551 34.5625,-62.96875 7.84645,-21.41365 14.96471,-39.74377 6.4375,-63.75 -3.84863,-10.83486 -10.33781,-20.48134 -19.53125,-27.9375 -6.08916,-4.9385 -13.08692,-8.67774 -20.46875,-11.28125 0.34813,-0.18879 3.2098,-1.67032 3.46875,-1.8125 6.51097,-3.57484 14.25603,-8.17946 20.09375,-17.625 5.83772,-9.44554 6.45162,-19.87438 6.125,-27.125 -0.1734,-3.84933 -0.73049,-9.96343 -2.71875,-15.59375 -1.98826,-5.63032 -4.16295,-9.27193 -6.96875,-14.28125 C 494.9281,209.41917 476.45841,186.78148 454.5,167.5625 414.3595,132.42974 362.99652,113.53859 309.71875,113.21875 z m -8.8125,129.4375 c 10.87188,-0.25237 25.98449,0.8535 33.84375,2.96875 2.39049,0.64338 5.20409,1.83357 7.96875,3 -11.9517,6.36579 -24.67596,13.13999 -40.15625,21.25 -19.84901,10.39875 -38.4791,20.21661 -52.5625,27.71875 -8.95819,5.0501 -20.9262,10.7959 -27.0625,14.8125 -3.20918,2.11056 -6.0768,4.55404 -8.71875,7.15625 4.20343,-19.66707 14.43441,-38.21253 30.15625,-52.875 12.14112,-11.32302 29.94951,-20.2023 47.5,-23.3125 2.25106,-0.39892 5.40729,-0.63463 9.03125,-0.71875 z m 105.3125,111.625 c -1.29449,3.34626 -2.5213,6.76371 -3.5625,10.28125 -9.68153,32.70737 -28.04001,53.1321 -58.21875,65.5 -14.46224,5.92694 -38.13411,8.25241 -57,4.625 -2.8536,-0.54867 -18.36413,-5.80411 -23.1875,-8.21875 -1.33773,-0.66968 -2.61876,-1.60015 -3.9375,-2.375 8.6558,-0.66661 19.38798,-3.46631 28.90625,-8.3125 9.68471,-4.93086 64.20292,-33.73482 117,-61.5 z"
     id="path10894"
     inkscape:connector-curvature="0"
     sodipodi:nodetypes="ssscssssssscssssssssscscccssscsssscsc" />
  <path
     inkscape:connector-curvature="0"
     id="white-fill"
     d="m 309.5625,141.09375 c -10.8049,-0.0649 -21.72045,0.74398 -32.65625,2.4375 -84.62809,13.10551 -149.76563,79.22627 -164.5,167 -2.33798,13.92752 -2.36492,43.30019 -0.0312,57.96875 6.87831,43.23932 25.62247,80.22395 56.1875,110.9375 33.7359,33.89982 75.63939,53.24439 125.4375,57.90625 8.27611,0.77477 20.5074,0.50748 34.5,-0.78125 54.42178,-5.01228 102.40685,-31.8735 137.375,-76.90625 25.50276,-32.84301 43.37491,-81.63046 36.75,-100.28125 -2.21268,-6.22925 -6.01114,-11.73095 -10.8125,-15.625 -12.33524,-10.00427 -27.11141,-12.14182 -39.8125,-5.71875 -10.6943,5.40821 -16.73107,14.63138 -22.59375,34.4375 -11.75221,39.70279 -37.10868,68.12088 -74.4063,83.40625 -20.80837,8.52772 -48.41879,10.87776 -72.8125,6.1875 -7.90118,-1.51919 -22.15321,-6.52467 -30.40625,-10.65625 -35.87064,-17.9573 -63.00085,-58.3247 -67.125,-99.90625 -3.85173,-38.83486 11.18844,-77.70741 40.6875,-105.21875 16.45941,-15.35033 38.68533,-26.30422 61.65625,-30.375 15.2894,-2.7095 39.06229,-1.50824 55,2.78125 17.58404,4.73259 38.156,15.46429 46.4375,24.21875 3.56844,3.77224 4.01111,9.09439 1,12.03125 -1.0725,1.04605 -34.3375,18.87885 -73.9375,39.625 -39.6,20.74615 -74.37063,39.26259 -77.25,41.15625 -18.16933,11.94933 -20.36615,36.10488 -4.71875,51.53125 7.30211,7.19896 12.3739,9.25 23.03125,9.25 9.03952,0 9.12413,-0.0251 20,-5.5625 14.07915,-7.16824 192.54864,-100.96269 202.40625,-106.375 9.93687,-5.45583 12.22726,-9.16152 11.78125,-19.0625 -0.28886,-6.41228 -0.80007,-7.88158 -6.1875,-17.5 -12.36725,-22.07982 -28.81553,-42.26348 -48.4375,-59.4375 -35.02829,-30.65833 -79.74125,-47.18767 -126.5625,-47.46875 z"
     style="fill:#ffffff" />
  <path
     sodipodi:type="arc"
     style="opacity:1;fill:#4ce1ff;fill-opacity:1;stroke:#4c4c4c;stroke-width:16.08458518999999900;stroke-linecap:square;stroke-linejoin:bevel;stroke-miterlimit:4;stroke-opacity:1;stroke-dasharray:none"
     id="path10920"
     sodipodi:cx="610.42371"
     sodipodi:cy="448.89832"
     sodipodi:rx="45"
     sodipodi:ry="45"
     d="m 655.42371,448.89832 a 45,45 0 1 1 -90,0 45,45 0 1 1 90,0 z"
     transform="matrix(1.2127257,0,0,1.2127257,-129.51377,-98.204027)" />
</svg>
