<?xml version="1.0" encoding="UTF-8" standalone="no"?>
<!-- Created with Inkscape (http://www.inkscape.org/) -->

<svg
   xmlns:dc="http://purl.org/dc/elements/1.1/"
   xmlns:cc="http://creativecommons.org/ns#"
   xmlns:rdf="http://www.w3.org/1999/02/22-rdf-syntax-ns#"
   xmlns:svg="http://www.w3.org/2000/svg"
   xmlns="http://www.w3.org/2000/svg"
   xmlns:sodipodi="http://sodipodi.sourceforge.net/DTD/sodipodi-0.dtd"
   xmlns:inkscape="http://www.inkscape.org/namespaces/inkscape"
   id="svg2985"
   version="1.1"
   inkscape:version="0.48.5 r10040"
   width="1704"
   height="939"
   sodipodi:docname="elgg no shadow.svg">
  <metadata
     id="metadata2991">
    <rdf:RDF>
      <cc:Work
         rdf:about="">
        <dc:format>image/svg+xml</dc:format>
        <dc:type
           rdf:resource="http://purl.org/dc/dcmitype/StillImage" />
      </cc:Work>
    </rdf:RDF>
  </metadata>
  <defs
     id="defs2989" />
  <sodipodi:namedview
     pagecolor="#ff28ff"
     bordercolor="#666666"
     borderopacity="1"
     objecttolerance="10"
     gridtolerance="10"
     guidetolerance="10"
     inkscape:pageopacity="0.59607843"
     inkscape:pageshadow="2"
     inkscape:window-width="1920"
     inkscape:window-height="1027"
     id="namedview2987"
     showgrid="false"
     inkscape:zoom="0.6325556"
     inkscape:cx="896.98788"
     inkscape:cy="594.05944"
     inkscape:window-x="1912"
     inkscape:window-y="816"
     inkscape:window-maximized="1"
     inkscape:current-layer="g3182" />
  <g
     id="g3182">
    <g
       transform="translate(966.20379,113.50596)"
       id="g8805">
      <path
         transform="matrix(0.99268465,0,0,0.99268465,7.6442922,-0.04821586)"
         d="m 652.20341,155.59322 c 0,26.21012 -21.2475,47.45762 -47.45762,47.45762 -26.21012,0 -47.45763,-21.2475 -47.45763,-47.45762 0,-26.21013 21.24751,-47.45763 47.45763,-47.45763 26.21012,0 47.45762,21.2475 47.45762,47.45763 z"
         sodipodi:ry="47.457626"
         sodipodi:rx="47.457626"
         sodipodi:cy="155.59322"
         sodipodi:cx="604.74579"
         id="path8024"
         style="fill:none;stroke:#cecece;stroke-width:9.15295696;stroke-miterlimit:4;stroke-opacity:1;stroke-dasharray:none"
         sodipodi:type="arc" />
      <text
         sodipodi:linespacing="160%"
         id="text8018"
         y="174.91525"
         x="587.45471"
         style="font-size:57.28489685px;font-style:normal;font-variant:normal;font-weight:bold;font-stretch:normal;line-height:160.00000238%;letter-spacing:0px;word-spacing:0px;fill:#cecece;fill-opacity:1;stroke:none;font-family:Arial;-inkscape-font-specification:Arial Bold"
         xml:space="preserve"><tspan
           style="font-style:normal;font-variant:normal;font-weight:bold;font-stretch:normal;line-height:160.00000238%;fill:#cecece;fill-opacity:1;font-family:Arial;-inkscape-font-specification:Arial Bold"
           y="174.91525"
           x="587.45471"
           id="tspan8020"
           sodipodi:role="line">R</tspan></text>
    </g>
    <path
       style="fill:#4ce1ff"
       d="m 1568.5,659.33288 c -12.9345,-1.44498 -26.2657,-8.12641 -36.5786,-18.33265 -8.3595,-8.2731 -12.7015,-15.14749 -16.5423,-26.19068 -3.4681,-9.97122 -3.7147,-26.82778 -0.546,-37.30955 6.6039,-21.84457 22.445,-37.64271 44.5222,-44.40133 C 1564.5109,531.52037 1568.8859,531 1577,531 c 18.2213,0 33.0413,6.04422 45.4771,18.54741 12.9577,13.02801 18.8188,27.38413 18.7608,45.95259 -0.058,18.60809 -5.7909,32.21325 -19.1758,45.50849 -8.1367,8.08218 -15.8289,12.76066 -26.1956,15.93257 -6.5153,1.99347 -20.2147,3.19079 -27.3665,2.39182 z"
       id="blue-dot" />
    <path
       style="fill:#4c4c4c"
       d="m 814,839.95558 c -30.87231,-2.31997 -59.46169,-10.47831 -88.47352,-25.24704 -35.8529,-18.25124 -51.67275,-37.19076 -53.26859,-63.77315 -1.68504,-28.06843 14.68254,-54.46707 40.51059,-65.33794 19.61983,-8.25788 40.62838,-5.30819 65.20358,9.15484 20.57899,12.11119 31.37973,15.40528 51.02794,15.56289 11.13775,0.0893 15.16232,-0.30795 23,-2.27053 32.43006,-8.12056 57.91194,-28.37683 68.64143,-54.56503 l 2.05688,-5.02038 -9.28956,4.78989 C 901.7363,659.2677 888.05621,663.55462 872,666.22537 c -15.61325,2.59707 -56.89239,3.12362 -71.5,0.91204 -66.74263,-10.10476 -124.95576,-47.44097 -161.14286,-103.35235 -3.66119,-5.65678 -8.79669,-14.65802 -11.41222,-20.00275 l -4.75551,-9.71768 -0.4475,40.21768 c -0.41739,37.51229 -0.59143,40.68983 -2.58723,47.23635 -6.39522,20.97726 -21.0496,36.23971 -41.87938,43.61713 -8.25937,2.92527 -25.59158,3.66782 -34.2753,1.46842 -22.90388,-5.80104 -40.17644,-22.20859 -47.12103,-44.7612 -2.08547,-6.77258 -2.30454,-9.84548 -2.82005,-39.55647 L 493.5,550.07308 l -5.83181,9.52925 c -26.0172,42.51239 -64.83623,75.64469 -109.16819,93.17576 -27.76408,10.97931 -51.42648,15.2518 -84.5,15.25734 -21.38508,0.004 -36.08197,-1.7341 -55,-6.50292 C 182.22486,647.22073 132.60305,610.41469 101.42331,559.48759 58.955908,490.12392 57.964805,401.53633 98.855839,330 117.41733,297.52782 143.77211,269.93779 175.05486,250.2295 225.1941,218.64154 287.48308,208.83552 347.5,223.08182 c 42.12848,10.0001 81.14307,32.87018 111.42695,65.31772 10.81634,11.58912 24.57883,29.71565 30.75614,40.50882 l 4.24006,7.40836 0.32952,-119.40836 L 494.58218,97.5 496.87237,90.636547 C 503.8872,69.613894 518.89198,54.561873 540,47.373131 544.2656,45.920399 548.41768,45.5 558.5,45.5 c 10.08232,0 14.2344,0.420399 18.5,1.873131 21.24432,7.235161 36.53989,22.799544 43.17401,43.932786 l 2.25836,7.194083 0.53381,127.48653 0.53382,127.48653 2.88161,-6.78145 C 630.3217,337.41918 641.13205,319.46226 649.67457,308 685.59871,259.79741 736.64523,229.20314 797.5,219.40218 c 13.75492,-2.21529 48.61835,-2.53013 62,-0.55988 76.95765,11.33083 140.9091,56.74631 174.365,123.82633 4.7374,9.49871 12.104,28.15007 13.7149,34.72504 0.6233,2.54388 1.2344,1.39553 5.055,-9.5 24.9119,-71.04203 84.7795,-125.7697 157.3651,-143.85462 20.6862,-5.15402 31.4983,-6.42009 55,-6.44038 22.9577,-0.0198 33.5967,1.14815 53.2209,5.84266 81.2136,19.428 146.1361,82.5891 166.374,161.86027 6.8977,27.01769 6.7045,23.5833 7.1534,127.1984 0.4404,101.68071 -0.095,119.64623 -4.2598,142.96446 -12.0645,67.5455 -51.9469,122.87218 -112.9885,156.74269 -37.8829,21.02031 -80.9049,30.72467 -123.0942,27.766 -33.0689,-2.31907 -65.4822,-11.28427 -92.2718,-25.52146 -37.8362,-20.10785 -53.3605,-41.36028 -51.8281,-70.95169 1.6928,-32.69036 27.1836,-59.93689 58.1941,-62.2023 15.2076,-1.11096 29.4897,2.92258 47.1494,13.31584 20.6888,12.17602 31.7036,15.54404 51.3506,15.70164 15.6985,0.12593 26.6286,-2.09055 41.1264,-8.33992 24.078,-10.37898 40.5528,-26.15159 50.2599,-48.11794 l 2.4936,-5.64269 -9.3159,4.90431 c -18.8957,9.94762 -41.6282,14.70214 -74.564,15.59512 -23.4873,0.6368 -39.2971,-0.88543 -59.5,-5.72891 C 1148.0474,647.0537 1091.7559,602.52147 1062.3613,542.6281 L 1057,531.70407 l -0.015,40.89796 c -0.01,22.49389 -0.4572,47.42297 -0.9979,55.39797 -5.3986,79.63342 -46.4289,144.92282 -115.4873,183.76921 -37.81444,21.2712 -83.3892,31.42604 -126.5,28.18637 z m 54.01185,-30.98932 C 942.44403,793.57622 1001.4433,739.66549 1021.1892,669 c 6.2543,-22.38257 6.7706,-27.89845 7.9082,-84.5 0.5748,-28.6 0.8269,-76.525 0.5602,-106.5 -0.5289,-59.43507 -0.9586,-64.65208 -7.2182,-87.62915 C 1005.6088,328.59144 959.1734,278.85008 897.48417,256.51949 854.48035,240.95275 805.27004,240.9353 763.44649,256.47199 734.40978,267.2586 712.64178,281.20617 690.94076,302.9291 652.7185,341.18996 632.7404,389.68246 632.82191,444 c 0.11432,76.17965 41.54353,142.44505 110.24879,176.34126 33.41934,16.48766 67.99274,23.2999 104.9293,20.67494 33.30977,-2.36722 54.29365,-9.63691 66.35599,-22.98848 5.98452,-6.62414 7.94903,-12.09097 7.91571,-22.02772 -0.0244,-7.26453 -0.46034,-9.44477 -2.99949,-15 -4.98967,-10.91652 -11.57163,-16.99604 -22.17909,-20.48602 -6.85589,-2.25567 -16.18302,-1.59688 -28.09312,1.98425 -12.97212,3.90046 -24.00833,5.50217 -37.88099,5.49775 -32.84088,-0.0105 -61.18945,-10.75668 -84.44497,-32.01091 -8.6647,-7.91905 -21.05413,-24.77519 -27.06516,-36.82285 C 704.57332,469.02704 701.97016,436.08573 712.16781,405 c 9.92975,-30.26911 29.59177,-55.32506 55.29454,-70.46367 19.4883,-11.47835 38.75274,-16.52994 63.03765,-16.52994 31.10676,0 55.71654,8.67665 79.96979,28.1949 22.62228,18.20569 41.29831,53.14821 44.58152,83.41124 0.71462,6.58705 0.9551,42.26588 0.72044,106.88747 l -0.35225,97 -3.29631,12.39359 c -9.27251,34.86311 -29.02786,59.94049 -60.34299,76.5992 -13.87329,7.38017 -32.34566,13.25065 -47.2802,15.02553 -11.02363,1.31009 -27.96877,0.62781 -38.69474,-1.55801 -13.50583,-2.75231 -21.88976,-6.12148 -39.05173,-15.69333 -18.28521,-10.19832 -21.47895,-11.4049 -30.1969,-11.40821 -13.80752,-0.005 -24.60193,6.55174 -31.85734,19.35149 -3.60901,6.3669 -4.97747,12.74527 -4.50058,20.97722 0.74088,12.78905 6.77245,21.67407 21.25492,31.31038 20.20632,13.44482 48.55827,24.74871 73.04637,29.12349 14.79035,2.64229 24.09694,3.25998 42.01185,2.78839 13.7715,-0.36253 19.77149,-1.01843 31.5,-3.44348 z m 434.80325,0.009 c 74.8678,-15.36334 134.0849,-69.88956 153.6793,-141.5056 6.6205,-24.19761 6.5443,-22.92712 7.5021,-124.97011 0.8849,-94.27982 0.5038,-114.54899 -2.5004,-133 -7.3153,-44.92878 -30.1731,-85.51042 -64.9961,-115.39397 -50.3089,-43.17292 -115.649,-59.04344 -179,-43.47749 -69.9153,17.17886 -126.2502,73.52381 -143.9176,143.94309 -4.3056,17.16144 -5.7697,29.50648 -5.803,48.92837 -0.034,20.09919 1.5599,33.12675 6.2461,51.03756 14.3239,54.74583 51.847,100.10174 104.2147,125.96903 32.7443,16.17423 67.8004,23.02906 104.7598,20.48461 49.0539,-3.37709 74.8839,-19.18494 74.3328,-45.4912 -0.3382,-16.14632 -10.4857,-30.0686 -25.5671,-35.07782 -6.6852,-2.22046 -15.2221,-1.51081 -28.9838,2.40935 -13.7537,3.91787 -22.985,5.16924 -38.1043,5.16528 -47.6352,-0.0125 -88.3102,-25.39451 -109.9996,-68.6419 -21.1215,-42.11499 -17.7646,-88.54759 9.3181,-128.89021 6.6229,-9.86547 22.1448,-25.43279 31.6392,-31.73189 20.9319,-13.88723 39.1154,-19.56228 65.5042,-20.44374 18.0252,-0.60209 29.6111,0.91617 44.3605,5.81314 24.1389,8.01441 42.8785,21.65256 59.0464,42.97227 13.6787,18.03742 23.1744,41.54249 25.4209,62.92552 1.257,11.96454 1.3085,182.69694 0.059,196.53965 -1.9286,21.37093 -9.3551,42.47258 -20.7155,58.8605 -16.5014,23.80409 -42.8462,41.23604 -74.0119,48.97253 -12.5747,3.12154 -19.2304,3.88323 -32.7993,3.75365 -23.271,-0.22223 -40.0163,-5.36952 -64.1992,-19.7339 -19.2179,-11.41532 -32.5262,-12.58797 -46.0404,-4.05683 -11.9661,7.55391 -19.3553,23.84872 -17.1476,37.81457 1.7672,11.17908 8.3867,19.79527 22.1984,28.89435 21.2668,14.01038 47.82,24.30032 74.6842,28.94174 15.4273,2.66543 18.6706,2.8661 38.8197,2.40184 14.2616,-0.3286 19.9049,-0.93039 32,-3.41239 z M 314.5,639.55602 c 54.42178,-5.01228 102.4062,-31.87641 137.37435,-76.90916 25.50276,-32.84301 43.38895,-81.63182 36.76404,-100.28261 -2.21268,-6.22925 -6.02546,-11.73222 -10.82682,-15.62627 C 465.47633,436.73371 450.70109,434.62025 438,441.04332 c -10.6943,5.40821 -16.74056,14.61595 -22.60324,34.42207 -11.75216,39.70279 -37.09914,68.11848 -74.39676,83.40385 -20.80837,8.52772 -48.41444,10.87135 -72.80815,6.18109 -7.90118,-1.51919 -22.15031,-6.50355 -30.40335,-10.63513 -35.87064,-17.9573 -62.99315,-58.33365 -67.1173,-99.9152 -3.85173,-38.83486 11.17922,-77.7179 40.67828,-105.22924 16.45941,-15.35033 38.6796,-26.29472 61.65052,-30.3655 15.2894,-2.7095 39.06229,-1.50666 55,2.78283 17.58404,4.73259 38.1685,15.46592 46.45,24.22038 3.56844,3.77224 4.01111,9.10103 1,12.03789 -1.0725,1.04605 -34.35,18.87603 -73.95,39.62218 -39.6,20.74615 -74.35584,39.26963 -77.23521,41.16329 -18.16933,11.94933 -20.39402,36.09841 -4.74662,51.52478 7.30211,7.19896 12.4024,9.24339 23.05975,9.24339 9.03952,0 9.12413,-0.0235 20,-5.56085 14.07915,-7.16824 192.54568,-100.96572 202.40329,-106.37803 9.93687,-5.45583 12.22622,-9.16014 11.78021,-19.06112 -0.28886,-6.41228 -0.80912,-7.88158 -6.19655,-17.5 -12.36725,-22.07982 -28.80789,-42.25408 -48.42986,-59.4281 -43.11174,-37.73333 -100.89999,-54.08445 -159.22428,-45.05235 -84.62809,13.10551 -149.77773,79.24967 -164.512096,167.0234 -2.33798,13.92752 -2.342677,43.28849 -0.0093,57.95705 6.878306,43.23932 25.609016,80.23361 56.174046,110.94716 33.7359,33.89982 75.63848,53.24325 125.43659,57.90511 8.27611,0.77477 20.5074,0.49248 34.5,-0.79625 z m 258.23546,-2.05521 c 7.36053,-3.34161 11.6519,-6.87076 15.61439,-12.84099 C 595.56537,613.78829 595,636.5861 595,356.5 595,76.679506 595.5507,99.147574 588.43122,88.5 574.26044,67.306817 543.08435,67.204872 528.60263,88.304362 521.47247,98.692812 522.02165,76.312172 522.02165,356.5 c 0,278.22904 -0.47226,257.44759 6.08268,267.66258 9.39472,14.64041 28.91375,20.47376 44.63113,13.33823 z M 928.05813,435 c -2.47391,-23.1387 -11.07432,-42.2198 -26.43727,-58.65447 -8.76015,-9.37125 -16.64044,-15.37165 -27.12086,-20.65101 -14.37352,-7.24044 -26.39853,-9.96307 -44,-9.96219 -22.54996,0.001 -40.64149,5.75758 -57.28033,18.22571 -9.18083,6.87956 -13.26266,11.09975 -20.07091,20.75125 -28.98502,41.08966 -25.53091,91.16298 8.73857,126.68066 18.53115,19.20611 41.30799,28.81199 68.61267,28.93664 12.71722,0.0581 17.41395,-0.68879 35,-5.56552 22.89506,-6.34894 42.53869,-3.32509 59,9.08221 l 4,3.0149 0.28692,-51.17909 C 928.95478,465.73762 928.65236,440.55782 928.05813,435 z m 434.97357,1.31858 c -2.387,-25.25582 -12.9488,-47.4866 -30.467,-64.12712 -9.215,-8.75337 -14.505,-12.36138 -25.8865,-17.65587 -11.3123,-5.2623 -18.3709,-7.20762 -30.8471,-8.50128 -9.0597,-0.93942 -24.8804,-0.16135 -31.8311,1.56545 -12.8888,3.20205 -21.7444,6.9016 -31.415,13.124 -30.0544,19.33806 -49.2056,62.30143 -43.2054,96.92591 9.6252,55.54231 60.446,91.55013 114.6204,81.2114 3.025,-0.57729 10.45,-2.42229 16.5,-4.1 22.9812,-6.37283 43.4645,-3.16963 59,9.22648 l 4,3.19168 0.2942,-49.83961 c 0.1757,-29.76709 -0.1314,-54.34285 -0.7625,-61.02104 z M 317,537.46668 c 9.8953,-2.26899 22.97896,-7.9695 31.89358,-13.89593 14.09942,-9.37328 28.6563,-26.33677 34.38591,-40.07075 2.88851,-6.92378 8.74138,-25.5 8.03438,-25.5 -0.50316,0 -21.11385,10.78044 -81.81387,42.79282 -40.17284,21.18661 -47.56289,24.61555 -55.36381,25.68845 -2.82368,0.38835 -5.34019,1.03979 -5.59224,1.44763 -0.99882,1.61611 16.33427,8.28509 25.95605,9.98669 3.3,0.58361 7.125,1.26054 8.5,1.5043 5.2516,0.93101 26.82702,-0.30845 34,-1.95321 z M 212.5,413.31345 c 4.17237,-2.5867 97.28707,-51.69235 112.84773,-59.5122 l 4.84773,-2.43618 -7.70987,-2.2402 c -51.9622,-15.09825 -104.83348,13.6529 -120.81278,65.6974 l -2.55519,8.32228 4.19119,-3.36565 c 2.30515,-1.85111 6.44119,-4.76056 9.19119,-6.46545 z m 1356,246.01943 c -12.9345,-1.44498 -26.2657,-8.12641 -36.5786,-18.33265 -8.3595,-8.2731 -12.7015,-15.14749 -16.5423,-26.19068 -3.4681,-9.97122 -3.7147,-26.82778 -0.546,-37.30955 6.6039,-21.84457 22.445,-37.64271 44.5222,-44.40133 C 1564.5109,531.52037 1568.8859,531 1577,531 c 18.2213,0 33.0413,6.04422 45.4771,18.54741 12.9577,13.02801 18.8188,27.38413 18.7608,45.95259 -0.058,18.60809 -5.7909,32.21325 -19.1758,45.50849 -8.1367,8.08218 -15.8289,12.76066 -26.1956,15.93257 -6.5153,1.99347 -20.2147,3.19079 -27.3665,2.39182 z m 20.5685,-20.9444 c 16.1328,-4.78659 27.2832,-16.12342 31.3986,-31.92344 6.0868,-23.36901 -7.8388,-47.88764 -30.9671,-54.52331 -6.4121,-1.83967 -18.5879,-1.83967 -25,0 -32.617,9.35805 -43.3579,50.92354 -19.3588,74.91546 2.9473,2.94645 7.1588,6.28457 9.3588,7.41803 10.9523,5.64273 24.1291,7.21062 34.5685,4.11326 z"
       id="gray-stroke"
       inkscape:connector-curvature="0" />
    <path
       style="fill:#ffffff"
       d="M 558.625 72.53125 C 547.24941 72.494052 535.83461 77.762755 528.59375 88.3125 C 521.46359 98.70095 522.03125 76.312172 522.03125 356.5 C 522.03125 634.72904 521.53881 613.94126 528.09375 624.15625 C 537.48847 638.79666 557.03262 644.63553 572.75 637.5 C 580.11053 634.15839 584.38126 630.62648 588.34375 624.65625 C 595.55927 613.78472 595 636.5861 595 356.5 C 595 76.679506 595.55698 99.147574 588.4375 88.5 C 581.35211 77.903408 570.00059 72.568448 558.625 72.53125 z M 295.5625 244.09375 C 284.7576 244.02888 273.84205 244.83773 262.90625 246.53125 C 178.27816 259.63676 113.14062 325.75752 98.40625 413.53125 C 96.06827 427.45877 96.041623 456.83144 98.375 471.5 C 105.25331 514.73932 123.99747 551.72395 154.5625 582.4375 C 188.2984 616.33732 230.20189 635.68189 280 640.34375 C 288.27611 641.11852 300.5074 640.85123 314.5 639.5625 C 368.92178 634.55022 416.90685 607.689 451.875 562.65625 C 477.37776 529.81324 495.24991 481.02579 488.625 462.375 C 486.41232 456.14575 482.61386 450.64405 477.8125 446.75 C 465.47726 436.74573 450.70109 434.60818 438 441.03125 C 427.3057 446.43946 421.26893 455.66263 415.40625 475.46875 C 403.65409 515.17154 378.29762 543.58963 341 558.875 C 320.19163 567.40272 292.58121 569.75276 268.1875 565.0625 C 260.28632 563.54331 246.03429 558.53783 237.78125 554.40625 C 201.91061 536.44895 174.7804 496.08155 170.65625 454.5 C 166.80452 415.66514 181.84469 376.79259 211.34375 349.28125 C 227.80316 333.93092 250.02908 322.97703 273 318.90625 C 288.2894 316.19675 312.06229 317.39801 328 321.6875 C 345.58404 326.42009 366.156 337.15179 374.4375 345.90625 C 378.00594 349.67849 378.44861 355.00064 375.4375 357.9375 C 374.365 358.98355 341.1 376.81635 301.5 397.5625 C 261.9 418.30865 227.12937 436.82509 224.25 438.71875 C 206.08067 450.66808 203.88385 474.82363 219.53125 490.25 C 226.83336 497.44896 231.90515 499.5 242.5625 499.5 C 251.60202 499.5 251.68663 499.47485 262.5625 493.9375 C 276.64165 486.76926 455.11114 392.97481 464.96875 387.5625 C 474.90562 382.10667 477.19601 378.40098 476.75 368.5 C 476.46114 362.08772 475.94993 360.61842 470.5625 351 C 458.19525 328.92018 441.74697 308.73652 422.125 291.5625 C 387.09671 260.90417 342.38375 244.37483 295.5625 244.09375 z M 1265.125 244.78125 C 1249.3046 244.80777 1233.3378 246.73351 1217.5 250.625 C 1147.5847 267.80386 1091.2612 324.14322 1073.5938 394.5625 C 1069.2882 411.72394 1067.8146 424.07811 1067.7812 443.5 C 1067.7472 463.59919 1069.345 476.62044 1074.0312 494.53125 C 1088.3552 549.27708 1125.8823 594.63271 1178.25 620.5 C 1210.9943 636.67423 1246.0406 643.54445 1283 641 C 1332.0539 637.62291 1357.8949 621.80626 1357.3438 595.5 C 1357.0056 579.35368 1346.8627 565.41547 1331.7812 560.40625 C 1325.0961 558.18579 1316.543 558.92359 1302.7812 562.84375 C 1289.0276 566.76162 1279.8068 568.00396 1264.6875 568 C 1217.0523 567.9875 1176.3769 542.59114 1154.6875 499.34375 C 1133.566 457.22876 1136.9173 410.81137 1164 370.46875 C 1170.6229 360.60328 1186.1306 345.01785 1195.625 338.71875 C 1216.5569 324.83152 1234.7362 319.16271 1261.125 318.28125 C 1279.1502 317.67916 1290.7506 319.19678 1305.5 324.09375 C 1329.6389 332.10816 1348.3634 345.74279 1364.5312 367.0625 C 1378.2099 385.09992 1387.7223 408.61697 1389.9688 430 C 1391.2258 441.96454 1391.2808 612.68854 1390.0312 626.53125 C 1388.1027 647.90218 1380.6729 669.01833 1369.3125 685.40625 C 1352.8111 709.21034 1326.4782 726.63851 1295.3125 734.375 C 1282.7378 737.49654 1276.0689 738.25458 1262.5 738.125 C 1239.229 737.90277 1222.4954 732.77063 1198.3125 718.40625 C 1179.0946 706.99093 1165.7642 705.81261 1152.25 714.34375 C 1140.2839 721.89766 1132.9173 738.1904 1135.125 752.15625 C 1136.8922 763.33533 1143.5008 771.93217 1157.3125 781.03125 C 1178.5793 795.04163 1205.1358 805.35858 1232 810 C 1247.4273 812.66543 1250.6634 812.83926 1270.8125 812.375 C 1285.0741 812.0464 1290.7174 811.45075 1302.8125 808.96875 C 1377.6803 793.60541 1436.9056 739.08479 1456.5 667.46875 C 1463.1205 643.27114 1463.0422 644.54299 1464 542.5 C 1464.8849 448.22018 1464.5042 427.95101 1461.5 409.5 C 1454.1847 364.57122 1431.323 323.9773 1396.5 294.09375 C 1358.7683 261.71406 1312.5863 244.70168 1265.125 244.78125 z M 830.03125 244.84375 C 807.12525 244.83563 784.34928 248.7004 763.4375 256.46875 C 734.40079 267.25536 712.63852 281.21457 690.9375 302.9375 C 652.71524 341.19836 632.73099 389.68246 632.8125 444 C 632.92682 520.17965 674.35724 586.44754 743.0625 620.34375 C 776.48184 636.83141 811.06344 643.65621 848 641.03125 C 881.30977 638.66403 902.28141 631.38282 914.34375 618.03125 C 920.32827 611.40711 922.31457 605.93675 922.28125 596 C 922.25685 588.73547 921.8204 586.55523 919.28125 581 C 914.29158 570.08348 907.70121 563.98998 897.09375 560.5 C 890.23786 558.24433 880.9101 558.91887 869 562.5 C 856.02788 566.40046 844.99766 568.00442 831.125 568 C 798.28412 567.9895 769.94302 557.25423 746.6875 536 C 738.0228 528.08095 725.60478 511.20391 719.59375 499.15625 C 704.55819 469.02107 701.9586 436.08573 712.15625 405 C 722.086 374.73089 741.76598 349.66986 767.46875 334.53125 C 786.95705 323.0529 806.21509 318 830.5 318 C 861.60676 318 886.2155 326.66925 910.46875 346.1875 C 933.09103 364.39319 951.77929 399.36197 955.0625 429.625 C 955.77712 436.21205 956.01591 471.87841 955.78125 536.5 L 955.40625 633.5 L 952.125 645.90625 C 942.85249 680.76936 923.09638 705.84129 891.78125 722.5 C 877.90796 729.88017 859.43454 735.75637 844.5 737.53125 C 833.47637 738.84134 816.53847 738.15457 805.8125 735.96875 C 792.30667 733.21644 783.91197 729.8531 766.75 720.28125 C 748.46479 710.08293 745.28045 708.84706 736.5625 708.84375 C 722.75498 708.83875 711.94291 715.419 704.6875 728.21875 C 701.07849 734.58565 699.71061 740.95555 700.1875 749.1875 C 700.92838 761.97655 706.98628 770.86369 721.46875 780.5 C 741.67507 793.94482 770.0119 805.25022 794.5 809.625 C 809.29035 812.26729 818.58509 812.87784 836.5 812.40625 C 850.2715 812.04372 856.27149 811.3938 868 808.96875 C 942.43218 793.57871 1001.4416 739.66549 1021.1875 669 C 1027.4418 646.61743 1027.9561 641.10155 1029.0938 584.5 C 1029.6686 555.9 1029.923 507.975 1029.6562 478 C 1029.1273 418.56493 1028.6971 413.35207 1022.4375 390.375 C 1005.6069 328.59559 959.15798 278.86184 897.46875 256.53125 C 875.96684 248.74788 852.93725 244.85187 830.03125 244.84375 z M 199.1875 422.96875 L 199.125 423.15625 L 199.25 423.0625 C 199.22647 423.03141 199.21009 423.00002 199.1875 422.96875 z "
       id="path3278" />
  </g>
</svg>
